<svg width="75" height="53" viewBox="0 0 75 53" fill="none" xmlns="http://www.w3.org/2000/svg">
<path fill-rule="evenodd" clip-rule="evenodd" d="M72.4371 31.313C72.8751 34.625 74.8981 49.727 74.8981 49.727C74.8981 49.727 75.6411 52.875 72.0001 52.875H70.0451C69.6561 46.473 64.3551 41.396 57.8541 41.396C51.3531 41.396 46.0531 46.473 45.6631 52.875H35.4991C36.1901 50.664 36.5631 48.313 36.5631 45.875C36.5631 32.929 26.0691 22.436 13.1251 22.436C8.46519 22.4285 3.90981 23.8168 0.0461172 26.422C0.00111722 23.463 0.00411725 12.537 2.31212 6.167C2.31212 6.167 3.37512 3.625 5.75012 3C8.12512 2.375 30.5001 0 30.5001 0C30.5001 0 32.8141 0.062 33.6261 1.875C34.4381 3.688 44.1881 23.75 44.1881 23.75L56.0001 25.128V19.833H60.0001V14H63.0001V25.946L68.8121 26.625C68.8121 26.625 71.8901 27.172 72.4371 31.313ZM13.1251 19.833H20.0831V6.167H13.1251V19.833ZM30.0831 19.833H23.1251V6.167H30.0831V19.833ZM46.0001 36H50.0161V29H46.0001V36ZM57.0161 36H53.0001V29H57.0161V36ZM60.0001 36H64.0161V29H60.0001V36Z" fill="white"/>
</svg>
